<svg xmlns="http://www.w3.org/2000/svg" width="900" height="560" font-family="-apple-system, BlinkMacSystemFont, Segoe UI, sans-serif">
  <rect width="900" height="560" fill="#0d1117"/>
  <rect x="0" y="0" width="200" height="560" fill="#161b22"/>
  <rect x="0" y="0" width="200" height="48" fill="#1c2128"/>
  <text x="16" y="32" fill="#58a6ff" font-size="16" font-weight="700">netops-toolkit</text>
  <text x="40" y="80" fill="#8b949e" font-size="13">󰲔  Inventory</text>
  <text x="40" y="116" fill="#8b949e" font-size="13">󰑮  Scan Runner</text>
  <text x="40" y="152" fill="#8b949e" font-size="13">󰢹  Device Detail</text>
  <rect x="0" y="162" width="200" height="36" fill="#1f6feb" rx="4" opacity="0.2"/>
  <text x="40" y="188" fill="#58a6ff" font-size="13">󰒓  Settings</text>
  <!-- Main -->
  <text x="220" y="36" fill="#c9d1d9" font-size="18" font-weight="600">Settings</text>
  <!-- Credentials -->
  <rect x="220" y="50" width="660" height="180" fill="#161b22" stroke="#30363d" rx="8"/>
  <text x="236" y="74" fill="#c9d1d9" font-size="14" font-weight="600">SSH Credentials</text>
  <text x="236" y="100" fill="#8b949e" font-size="12">Username</text>
  <rect x="236" y="106" width="300" height="28" fill="#0d1117" stroke="#30363d" rx="4"/>
  <text x="248" y="125" fill="#c9d1d9" font-size="13">netops-admin</text>
  <text x="556" y="100" fill="#8b949e" font-size="12">Auth Method</text>
  <rect x="556" y="106" width="300" height="28" fill="#0d1117" stroke="#30363d" rx="4"/>
  <text x="568" y="125" fill="#c9d1d9" font-size="13">SSH Key (~/.ssh/id_ed25519)</text>
  <text x="236" y="155" fill="#8b949e" font-size="12">Timeout (seconds)</text>
  <rect x="236" y="161" width="100" height="28" fill="#0d1117" stroke="#30363d" rx="4"/>
  <text x="248" y="180" fill="#c9d1d9" font-size="13">15</text>
  <text x="356" y="155" fill="#8b949e" font-size="12">Concurrency</text>
  <rect x="356" y="161" width="100" height="28" fill="#0d1117" stroke="#30363d" rx="4"/>
  <text x="368" y="180" fill="#c9d1d9" font-size="13">10</text>
  <rect x="236" y="200" width="80" height="24" fill="#238636" rx="4"/>
  <text x="256" y="217" fill="#fff" font-size="12">Save</text>
  <!-- Scan Profiles -->
  <rect x="220" y="246" width="660" height="180" fill="#161b22" stroke="#30363d" rx="8"/>
  <text x="236" y="270" fill="#c9d1d9" font-size="14" font-weight="600">Scan Profiles</text>
  <rect x="236" y="282" width="628" height="28" fill="#0d1117" stroke="#30363d" rx="4"/>
  <text x="248" y="301" fill="#c9d1d9" font-size="13">production-full</text>
  <text x="500" y="301" fill="#8b949e" font-size="12">Deep scan, all vendors, CSV export</text>
  <rect x="820" y="286" width="36" height="20" fill="#21262d" rx="4"/>
  <text x="828" y="300" fill="#8b949e" font-size="11">Edit</text>
  <rect x="236" y="316" width="628" height="28" fill="#0d1117" stroke="#30363d" rx="4"/>
  <text x="248" y="335" fill="#c9d1d9" font-size="13">quick-check</text>
  <text x="500" y="335" fill="#8b949e" font-size="12">Version only, 30s timeout</text>
  <rect x="820" y="320" width="36" height="20" fill="#21262d" rx="4"/>
  <text x="828" y="334" fill="#8b949e" font-size="11">Edit</text>
  <rect x="236" y="350" width="628" height="28" fill="#0d1117" stroke="#30363d" rx="4"/>
  <text x="248" y="369" fill="#c9d1d9" font-size="13">nokia-only</text>
  <text x="500" y="369" fill="#8b949e" font-size="12">Nokia/Alcatel filter, deep + BOF</text>
  <rect x="820" y="354" width="36" height="20" fill="#21262d" rx="4"/>
  <text x="828" y="368" fill="#8b949e" font-size="11">Edit</text>
  <rect x="236" y="392" width="100" height="24" fill="#1f6feb" rx="4"/>
  <text x="248" y="409" fill="#fff" font-size="12">+ New Profile</text>
  <!-- Status bar -->
  <rect x="0" y="536" width="900" height="24" fill="#1c2128"/>
  <text x="8" y="552" fill="#8b949e" font-size="11">Settings</text>
  <text x="780" y="552" fill="#3fb950" font-size="11">● Connected</text>
</svg>